<svg width="190" height="22" viewBox="0 0 190 22" fill="none" xmlns="http://www.w3.org/2000/svg">
<g clip-path="url(#clip0_677_433)">
<path d="M34.6238 22C34.6177 22 34.6126 22 34.6076 22C33.4789 21.9939 32.4724 21.3588 31.9818 20.3421L28.6946 13.5383L25.1886 20.3767C24.6756 21.3771 23.6253 21.999 22.4489 21.999C21.2724 21.999 20.2221 21.3771 19.7092 20.3767L16.2031 13.5383L12.9159 20.3421C12.4243 21.3588 11.4188 21.9939 10.2902 22C10.2851 22 10.279 22 10.2739 22C9.15237 22 8.14584 21.3771 7.64614 20.3716L0.427461 5.84706C-0.201489 4.58096 -0.133302 3.10724 0.611669 1.90627C1.35155 0.712435 2.62879 0 4.02815 0H8.68422C10.6871 0 12.5007 1.1114 13.4176 2.89961L16.14 8.20929L19.1077 2.06912C19.7265 0.78775 20.9762 0.0223908 22.4478 0.0223908C23.9195 0.0223908 25.1692 0.78775 25.789 2.07013L28.7567 8.21031L31.4791 2.90063C32.396 1.11242 34.2096 0.00101776 36.2125 0.00101776H40.8686C42.2679 0.00101776 43.5462 0.713453 44.285 1.90729C45.03 3.10927 45.0982 4.58198 44.4692 5.84909L37.2516 20.3736C36.7519 21.3792 35.7464 22.002 34.6238 22.002V22Z" fill="white"/>
<path d="M190 20.115C189.164 20.116 188.327 20.1079 187.491 20.1252C187.279 20.1293 187.167 20.0387 187.068 19.884C186.003 18.2128 184.937 16.5416 183.871 14.8705C183.817 14.786 183.756 14.7056 183.673 14.5865C183.216 15.1137 182.811 15.644 182.34 16.1081C181.855 16.5854 181.668 17.1085 181.725 17.7843C181.782 18.4601 181.728 19.1451 181.743 19.826C181.748 20.0621 181.67 20.1283 181.442 20.1221C180.885 20.1079 180.326 20.1008 179.769 20.1242C179.471 20.1364 179.415 20.0275 179.416 19.7537C179.423 14.6679 179.421 9.58319 179.421 4.49742V1.4309C180.162 1.4309 180.87 1.42683 181.58 1.43802C181.633 1.43802 181.706 1.5398 181.731 1.60901C181.758 1.68229 181.737 1.77185 181.737 1.85429C181.737 5.72281 181.737 9.59032 181.737 13.4588V13.9107C182.303 13.2115 182.804 12.5917 183.305 11.9709C184.415 10.5949 185.523 9.2168 186.637 7.84485C186.701 7.76546 186.811 7.67183 186.9 7.67081C187.776 7.65758 188.652 7.66267 189.613 7.66267C189.29 8.04026 189.016 8.36289 188.74 8.68451C187.622 9.98724 186.501 11.2869 185.391 12.5968C185.334 12.664 185.32 12.837 185.366 12.9092C186.678 14.9458 188.002 16.9752 189.326 19.0046C189.543 19.3375 189.774 19.6621 189.999 19.9898V20.114L190 20.115Z" fill="white"/>
<path d="M73.9172 2.6604C73.5498 3.94584 73.1977 5.17632 72.8465 6.40781C72.2054 8.65809 71.5673 10.9094 70.9261 13.1597C70.4335 14.8868 69.9389 16.6129 69.4423 18.3391C69.2896 18.8714 69.1339 19.4026 68.966 19.9298C68.9426 20.0051 68.8408 20.1079 68.7736 20.109C68.0215 20.1222 67.2694 20.1171 66.5 20.1171C65.3409 15.7112 64.1868 11.3287 63.0337 6.94519C63.0082 6.94825 62.9828 6.9513 62.9574 6.95333C62.5167 8.51357 62.0821 10.0748 61.6353 11.633C61.1183 13.4365 60.5881 15.2369 60.0691 17.0404C59.8055 17.9574 59.546 18.8764 59.3007 19.7985C59.2386 20.0326 59.1511 20.1334 58.8865 20.1242C58.2168 20.1018 57.5451 20.1171 56.8287 20.1171C55.2339 14.3097 53.6401 8.50746 52.0342 2.6604C52.9104 2.6604 53.7338 2.6543 54.5581 2.67058C54.6324 2.6716 54.7433 2.81205 54.7698 2.90568C55.0497 3.92548 55.3133 4.94936 55.586 5.97119C56.1091 7.9253 56.6373 9.87839 57.1584 11.8335C57.481 13.0436 57.7945 14.2568 58.114 15.468C58.1313 15.5341 58.1659 15.5952 58.2321 15.7519C58.3318 15.4211 58.4112 15.1769 58.4794 14.9296C58.9465 13.237 59.4086 11.5424 59.8777 9.84989C60.4945 7.62404 61.1163 5.40023 61.7392 3.17539C61.8837 2.65837 61.8888 2.65939 62.4424 2.65939C62.9278 2.65939 63.4133 2.66855 63.8987 2.65531C64.088 2.65023 64.1868 2.71842 64.2326 2.89449C64.5725 4.19621 64.9104 5.49793 65.2554 6.79863C65.7113 8.5156 66.1754 10.2305 66.6323 11.9475C66.957 13.1678 67.2766 14.3891 67.5992 15.6094C67.6063 15.6359 67.6226 15.6593 67.6694 15.7601C67.7763 15.4222 67.8729 15.1484 67.9503 14.8685C68.3981 13.2564 68.8398 11.6432 69.2855 10.03C69.9318 7.69427 70.5801 5.35951 71.2243 3.02273C71.2935 2.77134 71.3932 2.63496 71.7067 2.64921C72.4262 2.68279 73.1488 2.65939 73.9192 2.65939L73.9172 2.6604Z" fill="white"/>
<path d="M152.904 17.1787C153.047 16.6383 153.192 16.0969 153.335 15.5564C153.709 14.1478 154.083 12.7403 154.457 11.3317C154.762 10.1796 155.062 9.02746 155.376 7.87739C155.398 7.79393 155.51 7.67485 155.583 7.67282C156.294 7.65755 157.005 7.66366 157.749 7.66366C157.555 8.36388 157.374 9.03255 157.182 9.69817C156.889 10.7139 156.588 11.7266 156.293 12.7423C155.762 14.5661 155.232 16.389 154.705 18.2138C154.545 18.7665 154.382 19.3181 154.245 19.8768C154.197 20.0722 154.108 20.1231 153.925 20.1211C153.265 20.115 152.603 20.114 151.943 20.1211C151.757 20.1231 151.675 20.0631 151.625 19.8758C151.199 18.2891 150.763 16.7055 150.325 15.1218C149.917 13.6471 149.502 12.1744 149.09 10.7007C149.082 10.6732 149.06 10.6498 148.999 10.5511C148.878 10.951 148.773 11.2737 148.681 11.5994C148.047 13.8435 147.416 16.0877 146.782 18.3319C146.635 18.855 146.485 19.3791 146.314 19.8952C146.283 19.9878 146.148 20.1058 146.059 20.1079C145.346 20.1252 144.634 20.1252 143.921 20.1079C143.826 20.1058 143.672 19.9969 143.648 19.9094C143.138 18.1019 142.644 16.2892 142.143 14.4796C141.722 12.956 141.299 11.4324 140.862 9.91292C140.837 9.82336 140.694 9.70529 140.605 9.70428C139.603 9.68901 138.601 9.69715 137.599 9.69308C137.428 9.69308 137.362 9.74906 137.363 9.92513C137.377 12.1011 137.378 14.2781 137.406 16.4541C137.41 16.7655 137.49 17.0932 137.609 17.3833C137.923 18.1487 138.618 18.4723 139.521 18.2973C139.851 18.2331 140.172 18.1202 140.542 18.0174C140.729 18.569 140.924 19.1278 141.099 19.6926C141.116 19.7486 141.027 19.885 140.957 19.9145C139.651 20.459 138.327 20.5893 137.001 20.0041C136.059 19.5878 135.494 18.8306 135.286 17.8423C135.158 17.2327 135.099 16.5996 135.092 15.9757C135.068 14.0155 135.082 12.0553 135.082 10.0951C135.082 9.97398 135.082 9.85287 135.082 9.69715H133.431V7.66875H135.068V4.66431H136.546C137.091 4.66431 137.363 4.93164 137.363 5.4663C137.363 6.09528 137.373 6.72528 137.358 7.35426C137.352 7.59649 137.424 7.67078 137.67 7.66875C139.261 7.65857 140.852 7.66671 142.443 7.65959C142.653 7.65959 142.741 7.71455 142.794 7.9354C143.282 9.99434 143.785 12.0502 144.289 14.1061C144.535 15.1127 144.792 16.1172 145.066 17.2083C145.158 16.9487 145.235 16.7594 145.291 16.565C145.699 15.1432 146.099 13.7204 146.507 12.2986C146.933 10.8197 147.362 9.34093 147.801 7.86619C147.825 7.78274 147.956 7.67384 148.039 7.67282C148.731 7.65755 149.423 7.65552 150.114 7.67282C150.207 7.67485 150.352 7.7919 150.378 7.88248C150.633 8.80152 150.868 9.72667 151.11 10.6498C151.603 12.5276 152.097 14.4053 152.591 16.2821C152.671 16.5833 152.754 16.8836 152.834 17.1838C152.857 17.1818 152.879 17.1798 152.902 17.1777L152.904 17.1787Z" fill="white"/>
<path d="M117.13 15.6064V2.68485H119.519V20.1141C118.835 20.1141 118.157 20.1202 117.479 20.1059C117.402 20.1039 117.31 20.0001 117.253 19.9227C115.788 17.9401 114.325 15.9555 112.864 13.9698C111.298 11.8447 109.734 9.7176 108.168 7.59251C108.103 7.50498 108.029 7.42356 107.896 7.26276C107.88 7.48666 107.862 7.61287 107.862 7.73907C107.86 11.7206 107.86 15.7021 107.86 19.6825C107.86 19.9723 107.716 20.1171 107.427 20.1171C106.879 20.1171 106.332 20.1039 105.785 20.1232C105.509 20.1334 105.417 20.0611 105.419 19.766C105.43 16.6099 105.426 13.4538 105.426 10.2977C105.426 7.87341 105.43 5.45012 105.421 3.0258C105.42 2.75101 105.481 2.63905 105.779 2.6533C106.274 2.67671 106.771 2.66653 107.266 2.65635C107.456 2.65228 107.582 2.70113 107.703 2.86703C109.648 5.51627 111.601 8.16042 113.553 10.8046C114.681 12.3343 115.813 13.8619 116.944 15.3896C116.979 15.4385 117.023 15.4822 117.131 15.6054L117.13 15.6064Z" fill="white"/>
<path d="M88.2651 14.4827C88.2152 15.702 89.065 17.5981 90.8216 18.2149C92.3553 18.7533 94.7836 18.5151 95.9326 16.445C96.3386 16.6984 96.7498 16.9427 97.1467 17.2073C97.6372 17.534 97.683 17.3966 97.2922 17.9441C96.2226 19.4403 94.7683 20.2443 92.9252 20.3858C91.2511 20.514 89.6787 20.2799 88.3037 19.2418C87.2494 18.4449 86.5838 17.3813 86.2205 16.1213C85.849 14.8298 85.7635 13.5138 86.1024 12.2151C86.6846 9.98523 87.9913 8.34968 90.2568 7.65353C92.4632 6.9757 94.4864 7.35431 96.1697 8.98375C97.2414 10.0208 97.7462 11.347 97.7869 12.837C97.7991 13.2696 97.7655 13.7021 97.7573 14.1347C97.7523 14.4013 97.6393 14.4899 97.3584 14.4888C94.4467 14.4776 91.535 14.4817 88.6223 14.4817C88.5022 14.4817 88.3811 14.4817 88.263 14.4817L88.2651 14.4827ZM88.4045 12.5785C88.49 12.6029 88.5185 12.6192 88.548 12.6192C90.7575 12.6212 92.9669 12.6212 95.1764 12.6243C95.3891 12.6243 95.4237 12.5408 95.3962 12.3352C95.0879 10.027 92.8957 8.71913 90.7341 9.60255C89.4192 10.1399 88.7719 11.2442 88.4035 12.5785H88.4045Z" fill="white"/>
<path d="M130.955 16.4398C131.471 16.7665 131.961 17.0678 132.436 17.3894C132.495 17.4291 132.527 17.6174 132.485 17.6805C131.671 18.9293 130.586 19.8178 129.11 20.1893C127.949 20.4824 126.776 20.5221 125.616 20.2738C123.738 19.8707 122.378 18.7776 121.574 17.02C120.918 15.5849 120.758 14.0664 121.06 12.5499C121.535 10.1694 122.871 8.44225 125.249 7.6545C127.883 6.78329 130.939 7.75322 132.24 10.4656C132.821 11.6767 132.966 12.9642 132.736 14.2883C132.723 14.3626 132.607 14.4369 132.523 14.4745C132.454 14.5051 132.36 14.4817 132.277 14.4817C129.386 14.4817 126.495 14.4857 123.603 14.4766C123.312 14.4766 123.208 14.559 123.264 14.8481C123.493 16.0511 123.99 17.0902 125.039 17.8006C125.991 18.4448 127.041 18.5497 128.145 18.3797C129.132 18.2281 129.955 17.7945 130.571 16.9976C130.701 16.8286 130.813 16.6454 130.953 16.4398H130.955ZM123.404 12.5815C123.522 12.6039 123.572 12.6222 123.621 12.6222C125.818 12.6242 128.015 12.6222 130.212 12.6263C130.414 12.6263 130.481 12.5337 130.432 12.3617C130.324 11.979 130.249 11.5759 130.074 11.2248C129.499 10.0758 128.588 9.37757 127.264 9.3389C125.586 9.29005 124.477 10.149 123.774 11.6055C123.627 11.9118 123.531 12.2426 123.404 12.5825V12.5815Z" fill="white"/>
<path d="M164.055 7.35928C167.564 7.30941 170.522 10.1968 170.411 14.1081C170.313 17.5339 167.711 20.4345 164.015 20.4264C160.443 20.4182 157.657 17.5736 157.665 13.9005C157.674 10.1754 160.451 7.32569 164.054 7.3603L164.055 7.35928ZM168.074 14.0663C168.06 12.9275 167.813 12.0298 167.269 11.2207C165.927 9.22484 163.283 8.91341 161.579 10.377C159.763 11.9362 159.491 14.7432 160.919 16.6912C162.069 18.2595 164.058 18.7745 165.776 17.8819C167.372 17.0535 167.988 15.6174 168.074 14.0674V14.0663Z" fill="white"/>
<path d="M81.8749 9.48444C82.9639 7.83871 84.3337 6.94715 86.414 7.5283C86.2776 8.31096 86.1412 9.09362 85.9977 9.92004C85.8145 9.8661 85.6659 9.81114 85.5123 9.77857C84.2961 9.52006 83.3028 9.90172 82.513 10.8411C82.3482 11.0375 82.1833 11.2411 82.0632 11.465C81.9614 11.6553 81.8668 11.8813 81.8658 12.0909C81.8525 14.6384 81.8515 17.1859 81.8648 19.7333C81.8668 20.0519 81.7782 20.1394 81.4658 20.1252C80.9091 20.0997 80.3514 20.113 79.7937 20.1201C79.6217 20.1221 79.5576 20.0661 79.5586 19.8901C79.5627 15.8577 79.5627 11.8253 79.5647 7.79291C79.5647 7.76442 79.5779 7.7349 79.5963 7.66468C80.2985 7.66468 81.0068 7.66061 81.7152 7.67384C81.764 7.67384 81.8495 7.81225 81.8525 7.88858C81.8658 8.31096 81.8576 8.73435 81.8597 9.15672C81.8597 9.26562 81.8709 9.37452 81.877 9.48342L81.8749 9.48444Z" fill="white"/>
<path d="M171.533 7.67591H173.824V9.51196C174.391 8.77815 174.944 8.08607 175.764 7.66268C176.606 7.22911 177.475 7.31664 178.381 7.50493C178.318 7.91814 178.262 8.32016 178.197 8.72115C178.146 9.03564 178.079 9.34708 178.028 9.66055C177.998 9.84782 177.937 9.94145 177.722 9.86614C176.594 9.46819 175.353 9.80711 174.589 10.7139C174.476 10.8473 174.362 10.9796 174.255 11.117C173.959 11.4986 173.804 11.9027 173.81 12.4167C173.839 14.8715 173.818 17.3274 173.829 19.7822C173.83 20.0621 173.747 20.1333 173.479 20.1232C172.933 20.1038 172.384 20.1018 171.838 20.1232C171.55 20.1354 171.53 20.0021 171.53 19.772C171.535 16.0684 171.534 12.3648 171.534 8.66111V7.67387L171.533 7.67591Z" fill="white"/>
<path d="M75.1152 7.66258C75.8317 7.66258 76.5125 7.65648 77.1924 7.67174C77.2606 7.67276 77.344 7.78573 77.3878 7.86512C77.4183 7.92008 77.3939 8.00659 77.3939 8.07885C77.3939 11.9555 77.3908 15.8332 77.4 19.7099C77.4 20.0244 77.3348 20.1465 76.9949 20.1271C76.4596 20.0966 75.9212 20.1119 75.3849 20.1231C75.1834 20.1271 75.0918 20.0864 75.0918 19.8544C75.0979 15.8637 75.0969 11.8731 75.0969 7.88344C75.0969 7.82339 75.106 7.76436 75.1142 7.66462L75.1152 7.66258Z" fill="white"/>
<path d="M75.0973 5.24854C75.0973 4.41601 75.0933 3.63335 75.1055 2.85069C75.1055 2.78657 75.2144 2.67055 75.2754 2.66851C75.9156 2.65528 76.5557 2.65426 77.1948 2.66851C77.262 2.67055 77.3831 2.79573 77.3841 2.86596C77.3984 3.59773 77.3974 4.3295 77.3841 5.06128C77.3831 5.12438 77.2712 5.23837 77.2091 5.23938C76.5201 5.25262 75.8311 5.24753 75.0973 5.24753V5.24854Z" fill="white"/>
</g>
<defs>
<clipPath id="clip0_677_433">
<rect width="190" height="22" fill="white"/>
</clipPath>
</defs>
</svg>
